# xmcd CD database file
#
# Track frame offsets:
#	150
#	19922
#	51804
#	63321
#	96482
#	130891
#	148444
#	176945
#	205132
#	239735
#	258937
#	286312
#	328633
#
# Disc length: 4613 seconds
#
# Revision: 2
# Processed by: cddbd v1.5.2PL0 Copyright (c) Steve Scherf et al.
# Submitted via: CDex 1.70beta2
#
DISCID=d212030d
DTITLE=Legendary Rhythm and Blues Revue (Tommy Castro - Deanna Bogart - Magic Dick - Ronnie Baker Brooks) - Command Performance - Live
DYEAR=2008
DGENRE=Blues
TTITLE0=Can't You See
TTITLE1=I Feel That Old Feeling Coming On
TTITLE2=Whammer Jammer
TTITLE3=Still The Girl In The Band
TTITLE4=See You Hurt Me More
TTITLE5=If It Ain't Me
TTITLE6=If I Had A Nickel
TTITLE7=Will It Go Round In Circles
TTITLE8=She's Nineteen Years Old
TTITLE9=Tell Me Mama
TTITLE10=Looking For A Love
TTITLE11=High On The Hog
TTITLE12=Sea Cruise
EXTD=YEAR: 2008
EXTT0=
EXTT1=
EXTT2=
EXTT3=
EXTT4=
EXTT5=
EXTT6=
EXTT7=
EXTT8=
EXTT9=
EXTT10=
EXTT11=
EXTT12=
PLAYORDER=
